<?xml version="1.0" encoding="UTF-8"?>
<svg xmlns="http://www.w3.org/2000/svg" viewBox="0 0 976 1600">
  <!-- 背景底色 -->
  <rect width="100%" height="100%" fill="#0B3D2E"/>
  <!-- 細邊框 -->
  <rect x="24" y="24" width="928" height="1552" rx="36" ry="36" fill="none" stroke="#F6E7D7" stroke-width="12"/>
  <!-- 外層花紋帶 -->
  <g transform="translate(0,0)">
    <defs>
      <pattern id="wave" x="0" y="0" width="120" height="80" patternUnits="userSpaceOnUse">
        <path d="M0 40 C30 10, 90 10, 120 40 L120 80 L0 80 Z" fill="#0A2B23" />
        <path d="M0 40 C30 70, 90 70, 120 40" fill="none" stroke="#F6E7D7" stroke-width="2"/>
      </pattern>
    </defs>
    <rect x="48" y="96" width="880" height="1408" rx="24" ry="24" fill="url(#wave)" opacity="0.15"/>
  </g>

  <!-- 中央對稱徽章 -->
  <g transform="translate(488,800)">
    <!-- 徽章外圈 -->
    <circle r="220" fill="#084733"/>
    <circle r="190" fill="none" stroke="#F6E7D7" stroke-width="8"/>
    <!-- 花朵放射 -->
    <g id="petals">
      <g transform="rotate(0)">
        <path d="M0,-140 C30,-110 60,-110 80,-80 C40,-95 10,-95 0,-140 Z" fill="#E85D4A" />
      </g>
    </g>
    <!-- 複製花瓣 -->
    <g>
      <!-- 8 片對稱花瓣 -->
      <g transform="rotate(0)"><use href="#petals" /></g>
      <g transform="rotate(45)"><use href="#petals" /></g>
      <g transform="rotate(90)"><use href="#petals" /></g>
      <g transform="rotate(135)"><use href="#petals" /></g>
      <g transform="rotate(180)"><use href="#petals" /></g>
      <g transform="rotate(225)"><use href="#petals" /></g>
      <g transform="rotate(270)"><use href="#petals" /></g>
      <g transform="rotate(315)"><use href="#petals" /></g>
    </g>
    <!-- 中心圓 -->
    <circle r="60" fill="#F6E7D7"/>
    <circle r="34" fill="#0B3D2E"/>
    <!-- 細節金邊 -->
    <circle r="208" fill="none" stroke="#C79B4A" stroke-width="6"/>
  </g>

  <!-- 四角小裝飾 (與中央呼應) -->
  <g fill="#E85D4A" transform="translate(0,0)" opacity="0.9">
    <path d="M92,160 C110,130 150,130 168,160 C150,150 110,150 92,160 Z" />
    <path d="M884,160 C866,130 826,130 808,160 C826,150 866,150 884,160 Z" transform="scale(-1,1) translate(-976,0)"/>
    <path d="M92,1440 C110,1410 150,1410 168,1440 C150,1430 110,1430 92,1440 Z" transform="translate(0,0)"/>
    <path d="M884,1440 C866,1410 826,1410 808,1440 C826,1430 866,1430 884,1440 Z" transform="scale(-1,1) translate(-976,0)"/>
  </g>

  <!-- 底層幾何線條增豐富感 -->
  <g stroke="#C79B4A" stroke-width="2" opacity="0.12" fill="none">
    <path d="M144 400 Q488 200 832 400" />
    <path d="M144 1200 Q488 1000 832 1200" />
  </g>
</svg>
